<svg width="171" height="183" viewBox="0 0 171 183" fill="none" xmlns="http://www.w3.org/2000/svg">
<path d="M123.718 26.178C135.346 32.334 145.35 41.9955 152.617 53.4525C159.97 64.9095 164.587 78.2475 163.989 91.158C163.39 104.069 157.576 116.637 149.539 127.496C141.502 138.354 131.242 147.503 119.529 153.402C107.815 159.302 96.7005 161.952 84.987 162.807C73.2735 163.747 61.047 162.892 49.761 157.591C38.475 152.29 28.215 142.544 21.033 131.087C13.851 119.63 9.74701 106.377 9.66151 93.1245C9.57601 79.872 13.509 66.6195 21.033 55.077C28.557 43.5345 39.672 33.702 51.8985 27.888C64.125 22.074 74.8125 20.2785 86.6115 18.3975C98.4105 16.5165 112.176 20.022 123.718 26.178Z" fill="white"/>
</svg>
